<svg width="18" height="18" viewBox="0 0 18 18" fill="none" xmlns="http://www.w3.org/2000/svg">
<path d="M1.77778 4.57895L1 2.47368H2.88889M1.77778 4.57895L2.88889 2.47368M1.77778 4.57895L2.88889 5.52632M1.77778 4.57895L2.77778 4.36842M2.88889 2.47368L4.55556 2.78947M2.88889 2.47368L2.44444 3.31579M2.88889 5.52632L4.11111 6.15789M2.88889 5.52632L2.77778 4.36842M2.88889 5.52632L3.22222 5M2.88889 5.52632L3.66667 5.42105M4.55556 2.78947L2.44444 3.31579M4.55556 2.78947L5.77778 4M4.55556 2.78947L3.77778 3.52632M4.55556 2.78947V3.84211M2.44444 3.31579L3.77778 3.52632M2.44444 3.31579L2.77778 4.36842M5.77778 4L5.88889 4.78947M5.77778 4L4.55556 3.84211M5.77778 4L5 4.36842M5.77778 4L5 5.21053M5.88889 4.78947L6.66667 5.10526M5.88889 4.78947L5 5.21053M5.88889 4.78947L6.22222 5.78947M4.11111 6.15789L3.66667 5.42105M4.11111 6.15789L4.94444 6.31579M5.77778 6.47368L4.88889 6.89474M5.77778 6.47368L6.44444 7.21053M5.77778 6.47368L4.94444 6.31579M5.77778 6.47368L5.91453 6.26316M5.77778 6.47368L6.73611 6.28947M6.66667 5.10526V3.42105M6.66667 5.10526L8.44444 3.73684M6.66667 5.10526L6.22222 5.78947M6.66667 5.10526L7.83333 4.94737M6.66667 3.42105L8.44444 3.73684M6.66667 3.42105L6.44444 2.05263M8.44444 3.73684L6.44444 2.05263M8.44444 3.73684L8.11111 2.05263M8.44444 3.73684H9V4.78947M8.44444 3.73684L9 4.78947M6.44444 2.05263H8.11111M6.44444 2.05263L7.55556 1M6.44444 2.05263V1H7.55556M8.11111 2.05263L7.55556 1M4.88889 6.89474L6.44444 7.21053M4.88889 6.89474L7.22222 7.94737M4.88889 6.89474L4.55556 7.94737M6.44444 7.21053L7.22222 7.94737M6.44444 7.21053L6.73611 6.28947M7.22222 7.94737H5.44444M7.22222 7.94737L6.11111 8.89474M7.22222 7.94737L7.66667 9.52632M7.22222 7.94737L7.125 6.65789M7.22222 7.94737L7.64236 6.83553M4.55556 7.94737V8.89474L5.44444 9.31579M4.55556 7.94737L5.44444 9.31579M4.55556 7.94737L6.11111 8.89474M4.55556 7.94737H5.44444M5.44444 9.31579L6.11111 8.89474M5.44444 9.31579L7.66667 11.3158M5.44444 9.31579L5.88889 10.8947M6.11111 8.89474L5.44444 7.94737M6.11111 8.89474L7.66667 9.52632M6.11111 8.89474L7.66667 11.3158M7.66667 9.52632V11.3158M7.66667 9.52632L7.65451 8.18092M7.66667 9.52632L9 7.21053M7.66667 9.52632L9 8.57895M7.66667 9.52632L8.55556 10.3684M7.66667 11.3158L5.88889 10.8947M7.66667 11.3158L7.22222 12.2632M7.66667 11.3158C7.74074 11.7018 7.88889 12.4947 7.88889 12.5789M7.66667 11.3158L8.55556 10.3684M7.66667 11.3158L9 11.2105M5.88889 10.8947L7.22222 12.2632M5.88889 10.8947V12.4737M7.22222 12.2632L5.88889 12.4737M7.22222 12.2632L6.88889 13.1053M7.22222 12.2632L7.55556 13.2105M7.22222 12.2632L7.88889 12.5789M5.88889 12.4737L6.88889 13.1053M5.88889 12.4737L6.11111 13.4211L6.66667 14.0526M6.88889 13.1053L6.66667 14.0526M6.88889 13.1053L7.22222 13.9474M6.88889 13.1053L7.55556 13.2105M6.66667 14.0526L7.22222 15.6316M6.66667 14.0526L7.88889 14.5789M6.66667 14.0526L7.22222 13.9474M7.22222 15.6316L7.88889 14.5789M7.22222 15.6316L8.55556 14.7895M7.22222 15.6316L8.77778 16.1579M7.22222 15.6316L7.88889 16.4737M7.88889 14.5789L7.22222 13.9474M7.88889 14.5789L8.55556 14.7895M7.88889 14.5789L7.55556 13.2105M7.88889 14.5789L8.22222 14.1053M7.22222 13.9474L7.55556 13.2105M7.55556 13.2105H8.22222M7.55556 13.2105L7.88889 12.5789M7.55556 13.2105L8.22222 14.1053M8.22222 13.2105L7.88889 12.5789M8.22222 13.2105L8.55556 13.6316M8.22222 13.2105V14.1053M8.22222 13.2105L8.33333 12.5526M7.88889 12.5789L8.44444 11.8947M8.55556 13.6316V14.7895M8.55556 13.6316L8.22222 14.1053M8.55556 13.6316L8.33333 12.5526M8.55556 13.6316L9 12.5526M8.55556 13.6316L9 14.7895M8.55556 14.7895L8.22222 14.1053M8.55556 14.7895L8.77778 16.1579M8.55556 14.7895H9M8.77778 16.1579L9 14.7895M8.77778 16.1579H9M8.77778 16.1579L7.88889 16.4737M8.77778 16.1579L8.22222 16.7895M8.77778 16.1579V17M9 14.7895V16.1579M9 14.7895V12.5526M9 16.1579L8.77778 17M9 16.1579V17H8.77778M7.88889 16.4737L8.22222 16.7895M8.22222 16.7895L8.77778 17M9 4.78947L7.83333 4.94737M9 4.78947L8.0625 5.72368M9 4.78947V7.21053M3.77778 3.52632L4.55556 3.84211M3.77778 3.52632L2.77778 4.36842M3.77778 3.52632L3.22222 5M4.55556 3.84211L5 4.36842M4.55556 3.84211L3.22222 5M4.55556 3.84211L3.66667 5.42105M5 4.36842V5.21053M5 4.36842L3.66667 5.42105M5 4.36842L4.30556 5.86842M5 5.21053L4.30556 5.86842M5 5.21053L4.94444 6.31579M5 5.21053L5.61111 5.5M6.22222 5.78947L5.91453 6.26316M6.22222 5.78947L5.61111 5.5M6.22222 5.78947L7.02778 5.36842M2.77778 4.36842L3.22222 5M3.22222 5L3.66667 5.42105M3.66667 5.42105L4.30556 5.86842M4.94444 6.31579L5.91453 6.26316M4.94444 6.31579L4.30556 5.86842M4.94444 6.31579L5.61111 5.5M5.91453 6.26316L5.61111 5.5M5.91453 6.26316L7.02778 5.36842M7.83333 4.94737L7.02778 5.36842M7.83333 4.94737L7.125 6.65789M7.02778 5.36842L6.73611 6.28947M7.02778 5.36842L7.125 6.65789M7.125 6.65789L8.0625 5.72368M8.0625 5.72368L7.64236 6.83553M8.0625 5.72368L9 7.21053M7.64236 6.83553L7.65451 8.18092M7.64236 6.83553L9 7.21053M7.65451 8.18092L9 7.21053M9 7.21053V8.57895M9 8.57895L8.55556 10.3684M9 8.57895V11.2105M8.55556 10.3684L9 11.2105M9 11.2105L8.44444 11.8947M9 11.2105L8.33333 12.5526M9 11.2105V12.5526M8.44444 11.8947L8.33333 12.5526M8.33333 12.5526H9" stroke="#4A2748" stroke-width="0.2"/>
<path d="M11.6666 2.15789L9.88886 1.8421C9.75429 2.98016 9.64903 3.54832 9.11108 3.73684V17C10.266 16.4942 10.7838 15.9731 11.2222 14.1579C11.5604 13.8925 11.7534 13.7028 12.1111 13.2105C11.9411 11.9587 11.8939 11.2467 12.4444 9.8421C13.2856 8.67249 13.6047 8.06466 13.4444 7.21052C13.2664 6.90988 13.0775 6.72955 12.4444 6.36842C15.2101 6.20819 16.1958 5.38529 17 2.68421C14.9801 2.41828 13.9356 2.41811 12.6666 3.42105C12.1042 4.79854 11.8346 5.16449 11.4444 5C11.0864 4.19288 11.0666 3.61722 11.6666 2.15789Z" fill="#7E547B" stroke="#7E547B" stroke-width="0.5" stroke-linejoin="round"/>
<path d="M9.55557 13.5263C9.55557 14.1579 9.5474 14.4382 9.44446 14.8947C10 14.5789 10.3424 14.4235 10.6667 13.8421C10.7778 13.6429 10.7304 13.2635 10.3333 13.2105C9.92602 13.1685 9.67146 13.2349 9.55557 13.5263Z" fill="#4A2748" stroke="#4A2748" stroke-width="0.5"/>
<path d="M11.8889 5.73684L12.4445 6.36842C14.2339 5.8789 14.9206 5.24414 15.5556 3.42105C14.6889 3.36854 14.1313 3.50254 13 4.05263C13.2772 4.73538 13.2182 4.93979 13 5.21053C12.7819 5.49562 12.5905 5.63011 11.8889 5.73684Z" fill="#945F91" stroke="#945F91" stroke-width="0.5"/>
<path d="M9.88886 1.94737C9.55553 2.78948 9.68304 3.46498 9.11108 3.73685V4.78948C9.9131 4.24832 9.98292 3.51124 9.88886 1.94737Z" fill="#945F91" stroke="#945F91" stroke-width="0.5" stroke-linejoin="round"/>
<path d="M11.6667 2.15789L9.88892 1.8421C9.91274 1.56121 10.0617 1.24551 10.2222 1.10526C10.383 0.964812 11.2222 0.999993 11.4445 1.10526C11.6667 1.21052 11.7025 1.44877 11.6667 2.15789Z" fill="#4A2748" stroke="#4A2748" stroke-width="0.5"/>
<path d="M13.4444 7.8421C13.5161 7.1246 13.3331 6.81915 12.5556 6.47368C10.2466 7.67622 9.83123 9.02929 11.1111 13C11.2824 13.4491 11.2875 14.0189 11.2222 14.4737C11.6553 14.1883 11.8614 13.7641 12.1111 13.2105L12.1066 13.1704C11.9732 11.9911 11.8857 11.2176 12.3333 9.94736L13.4444 7.8421Z" fill="#945F91" stroke="#945F91" stroke-width="0.5"/>
<path d="M13 7.84211C12.8081 8.06211 12.6834 8.14773 12.4444 8.26316C12.0648 8.43407 12.0108 8.62 12 9C12.5556 9.52632 13.4444 9.42106 13.4444 8.36842C13.5911 8.22324 13.7537 8.15729 14.1111 8.05263C13.7158 7.88183 13.4747 7.83072 13 7.84211Z" fill="#4A2748" stroke="#4A2748" stroke-width="0.5"/>
</svg>
